<svg width="65" height="64" viewBox="0 0 65 64" fill="none" xmlns="http://www.w3.org/2000/svg">
<rect x="0.986816" width="64" height="64" rx="8" fill="#08B6D5"/>
<path d="M39.613 42.0063C39.2877 39.3724 37.042 37.3333 34.3202 37.3333H31.6535C28.9316 37.3333 26.6859 39.3724 26.3606 42.0063M39.613 42.0063C42.8517 39.8573 44.9868 36.178 44.9868 32C44.9868 25.3726 39.6142 20 32.9868 20C26.3594 20 20.9868 25.3726 20.9868 32C20.9868 36.178 23.122 39.8573 26.3606 42.0063M39.613 42.0063C37.7143 43.2661 35.4362 44 32.9868 44C30.5374 44 28.2594 43.2661 26.3606 42.0063M36.9868 29.3333C36.9868 31.5425 35.196 33.3333 32.9868 33.3333C30.7777 33.3333 28.9868 31.5425 28.9868 29.3333C28.9868 27.1242 30.7777 25.3333 32.9868 25.3333C35.196 25.3333 36.9868 27.1242 36.9868 29.3333Z" stroke="#FDFDFF" stroke-width="2" stroke-linecap="round" stroke-linejoin="round"/>
</svg>
