<svg width="65" height="64" viewBox="0 0 65 64" fill="none" xmlns="http://www.w3.org/2000/svg">
<rect x="0.986816" width="64" height="64" rx="8" fill="#08B6D5"/>
<path d="M39.6536 41.3332C42.5991 41.3332 44.987 38.9454 44.987 35.9998C44.987 33.0543 42.5991 30.6665 39.6536 30.6665H39.6237C39.6435 30.4469 39.6536 30.2246 39.6536 29.9998C39.6536 25.9497 36.3704 22.6665 32.3203 22.6665C28.2702 22.6665 24.987 25.9497 24.987 29.9998C24.987 30.0061 24.987 30.0125 24.987 30.0188C22.3787 30.5482 20.4155 32.8542 20.4155 35.6187C20.4155 38.7747 22.9739 41.333 26.1298 41.333" stroke="#FDFDFF" stroke-width="2" stroke-linecap="round" stroke-linejoin="round"/>
<path d="M32.9867 41.3335L32.9867 34.6668M32.9867 34.6668L35.6533 37.3335M32.9867 34.6668L30.32 37.3335" stroke="#FDFDFF" stroke-width="2" stroke-linecap="round" stroke-linejoin="round"/>
</svg>
