<svg width="143" height="31" viewBox="0 0 143 31" fill="none" xmlns="http://www.w3.org/2000/svg">
<g id="social media">
<ellipse id="Ellipse 795" cx="15.5359" cy="15.1415" rx="15.5359" ry="15.1415" fill="#08B6D5"/>
<path id="Vector" d="M23.822 10.5234C23.2507 10.7599 22.629 10.9301 21.9886 10.9964C22.6534 10.6173 23.1513 10.0184 23.3889 9.31205C22.7649 9.66826 22.0814 9.91804 21.3687 10.0503C21.0708 9.74466 20.7105 9.50117 20.3103 9.335C19.91 9.16883 19.4784 9.08356 19.0423 9.08448C17.2779 9.08448 15.859 10.4571 15.859 12.1415C15.859 12.378 15.8888 12.6145 15.9374 12.8421C13.2955 12.7095 10.9392 11.4982 9.37277 9.64355C9.08734 10.1114 8.93777 10.6442 8.93961 11.1864C8.93961 12.2472 9.50159 13.1825 10.3586 13.7327C9.85355 13.7136 9.36034 13.5803 8.91907 13.3438V13.3814C8.91907 14.8669 10.0132 16.098 11.4714 16.3811C11.1976 16.4493 10.9159 16.4842 10.633 16.485C10.4258 16.485 10.2298 16.4653 10.0318 16.4384C10.4351 17.6497 11.6095 18.5296 13.008 18.5582C11.9138 19.3807 10.5434 19.8645 9.05537 19.8645C8.78837 19.8645 8.54192 19.8556 8.28613 19.8269C9.69764 20.696 11.3724 21.1977 13.176 21.1977C19.0311 21.1977 22.235 16.5423 22.235 12.5016C22.235 12.369 22.235 12.2364 22.2257 12.1038C22.8455 11.6684 23.3889 11.129 23.822 10.5234Z" fill="#FDFDFF"/>
<g id="Group 1000001750">
<ellipse id="Ellipse 796" cx="71.4646" cy="15.1415" rx="15.5359" ry="15.1415" fill="#FDFDFF"/>
<path id="Vector_2" fill-rule="evenodd" clip-rule="evenodd" d="M68.7798 7.11134C69.6082 7.07418 69.8723 7.06592 71.9824 7.06592C74.0924 7.06592 74.3565 7.07487 75.1842 7.11134C76.0118 7.14782 76.5767 7.27652 77.0711 7.46304C77.5887 7.65368 78.0583 7.9517 78.4467 8.33712C78.8422 8.71497 79.1472 9.17196 79.3421 9.67714C79.5342 10.1589 79.6656 10.7095 79.7037 11.5148C79.7418 12.3235 79.7503 12.5809 79.7503 14.6367C79.7503 16.6932 79.7411 16.9506 79.7037 17.7579C79.6663 18.5631 79.5342 19.1137 79.3421 19.5955C79.1472 20.1008 78.8416 20.5585 78.4467 20.9369C78.0583 21.3223 77.5887 21.6197 77.0711 21.8096C76.5767 21.9968 76.0118 22.1248 75.1856 22.162C74.3565 22.1992 74.0924 22.2074 71.9824 22.2074C69.8723 22.2074 69.6082 22.1985 68.7798 22.162C67.9536 22.1255 67.3887 21.9968 66.8944 21.8096C66.376 21.6196 65.9063 21.3218 65.518 20.9369C65.1228 20.5588 64.817 20.1013 64.6219 19.5962C64.4305 19.1144 64.2992 18.5638 64.261 17.7586C64.2229 16.9499 64.2144 16.6925 64.2144 14.6367C64.2144 12.5802 64.2236 12.3228 64.261 11.5161C64.2985 10.7095 64.4305 10.1589 64.6219 9.67714C64.8173 9.17202 65.1233 8.71449 65.5187 8.33643C65.9064 7.95135 66.3757 7.6533 66.8937 7.46304C67.388 7.27652 67.9529 7.14851 68.7791 7.11134H68.7798ZM75.1213 8.47408C74.3021 8.4376 74.0564 8.43003 71.9824 8.43003C69.9083 8.43003 69.6626 8.4376 68.8434 8.47408C68.0857 8.5078 67.6747 8.631 67.4007 8.73493C67.0384 8.87258 66.7792 9.03569 66.5074 9.30067C66.2496 9.54503 66.0513 9.84251 65.9269 10.1713C65.8203 10.4383 65.6939 10.8389 65.6593 11.5774C65.6218 12.3758 65.6141 12.6153 65.6141 14.6367C65.6141 16.6581 65.6218 16.8976 65.6593 17.6959C65.6939 18.4344 65.8203 18.835 65.9269 19.102C66.0512 19.4303 66.2496 19.7284 66.5074 19.9727C66.7581 20.2239 67.0638 20.4173 67.4007 20.5384C67.6747 20.6423 68.0857 20.7655 68.8434 20.7993C69.6626 20.8357 69.9076 20.8433 71.9824 20.8433C74.0571 20.8433 74.3021 20.8357 75.1213 20.7993C75.879 20.7655 76.29 20.6423 76.564 20.5384C76.9263 20.4008 77.1855 20.2377 77.4573 19.9727C77.7151 19.7284 77.9135 19.4303 78.0378 19.102C78.1445 18.835 78.2709 18.4344 78.3055 17.6959C78.3429 16.8976 78.3507 16.6581 78.3507 14.6367C78.3507 12.6153 78.3429 12.3758 78.3055 11.5774C78.2709 10.8389 78.1445 10.4383 78.0378 10.1713C77.8966 9.81823 77.7292 9.56564 77.4573 9.30067C77.2066 9.0495 76.9014 8.8562 76.564 8.73493C76.29 8.631 75.879 8.5078 75.1213 8.47408ZM70.9902 16.9705C71.5443 17.1953 72.1613 17.2257 72.7358 17.0564C73.3103 16.8871 73.8067 16.5286 74.1402 16.0422C74.4736 15.5559 74.6235 14.9718 74.5642 14.3897C74.5048 13.8076 74.24 13.2636 73.8149 12.8507C73.5439 12.5867 73.2162 12.3846 72.8554 12.2589C72.4947 12.1331 72.1098 12.087 71.7285 12.1236C71.3472 12.1603 70.979 12.2788 70.6504 12.4708C70.3218 12.6628 70.0409 12.9234 69.828 13.2339C69.6152 13.5444 69.4756 13.897 69.4193 14.2664C69.363 14.6357 69.3915 15.0127 69.5026 15.37C69.6138 15.7274 69.8048 16.0563 70.0621 16.333C70.3193 16.6098 70.6363 16.8275 70.9902 16.9705ZM69.1591 11.885C69.5298 11.5237 69.97 11.2371 70.4544 11.0415C70.9388 10.8459 71.458 10.7453 71.9824 10.7453C72.5067 10.7453 73.0259 10.8459 73.5103 11.0415C73.9947 11.2371 74.4349 11.5237 74.8057 11.885C75.1764 12.2464 75.4705 12.6754 75.6712 13.1475C75.8718 13.6196 75.9751 14.1256 75.9751 14.6367C75.9751 15.1477 75.8718 15.6537 75.6712 16.1258C75.4705 16.598 75.1764 17.0269 74.8057 17.3883C74.0569 18.1181 73.0413 18.5281 71.9824 18.5281C70.9234 18.5281 69.9078 18.1181 69.1591 17.3883C68.4103 16.6585 67.9896 15.6687 67.9896 14.6367C67.9896 13.6046 68.4103 12.6148 69.1591 11.885ZM76.8606 11.3248C76.9525 11.2403 77.0261 11.1388 77.0769 11.0261C77.1278 10.9134 77.155 10.7919 77.1568 10.6689C77.1586 10.5458 77.1351 10.4236 77.0876 10.3095C77.0402 10.1954 76.9697 10.0918 76.8804 10.0048C76.7911 9.91773 76.6847 9.84904 76.5677 9.80276C76.4507 9.75648 76.3253 9.73356 76.199 9.73535C76.0727 9.73715 75.9481 9.76362 75.8325 9.81321C75.7168 9.86279 75.6126 9.93447 75.526 10.024C75.3574 10.1982 75.2651 10.4295 75.2687 10.6689C75.2723 10.9082 75.3714 11.1368 75.5451 11.3061C75.7188 11.4754 75.9534 11.5721 76.199 11.5755C76.4446 11.579 76.6819 11.4891 76.8606 11.3248Z" fill="#08B6D5"/>
</g>
<g id="Group 1000001751">
<ellipse id="Ellipse 797" cx="127.394" cy="15.1415" rx="15.5359" ry="15.1415" fill="#08B6D5"/>
<path id="Vector_3" d="M133.296 10.9316C132.289 10.5375 131.226 10.2562 130.134 10.0948C130.124 10.0934 130.114 10.0946 130.105 10.0983C130.096 10.102 130.088 10.108 130.083 10.1155C129.946 10.3224 129.795 10.5931 129.689 10.805C128.512 10.6527 127.314 10.6527 126.137 10.805C126.019 10.5689 125.886 10.3387 125.737 10.1155C125.732 10.1081 125.725 10.1022 125.716 10.0985C125.707 10.0948 125.697 10.0935 125.687 10.0948C124.594 10.2554 123.531 10.5368 122.524 10.9316C122.516 10.9344 122.508 10.9397 122.504 10.9465C120.49 13.5115 119.938 16.0135 120.208 18.4841C120.209 18.4957 120.218 18.5073 120.229 18.5148C121.401 19.2552 122.713 19.8205 124.108 20.1867C124.118 20.1893 124.128 20.1892 124.138 20.1864C124.148 20.1836 124.156 20.1781 124.162 20.1709C124.461 19.8233 124.727 19.4567 124.957 19.071C124.961 19.063 124.963 19.054 124.961 19.0452C124.959 19.0364 124.954 19.0283 124.947 19.0221C124.942 19.0181 124.936 19.015 124.929 19.013C124.511 18.876 124.106 18.7113 123.718 18.5205C123.707 18.5153 123.699 18.5067 123.695 18.4965C123.691 18.4864 123.693 18.4754 123.698 18.4659C123.701 18.4598 123.706 18.4544 123.713 18.4502C123.794 18.3981 123.876 18.3434 123.953 18.2888C123.96 18.2841 123.969 18.2811 123.977 18.2801C123.986 18.279 123.995 18.2801 124.003 18.283C126.546 19.2729 129.299 19.2729 131.811 18.283C131.819 18.2799 131.828 18.2788 131.837 18.2798C131.846 18.2809 131.855 18.284 131.862 18.2888C131.94 18.3434 132.021 18.3981 132.103 18.4502C132.11 18.4543 132.115 18.4598 132.118 18.4661C132.122 18.4724 132.124 18.4793 132.123 18.4863C132.123 18.4932 132.12 18.5 132.116 18.506C132.112 18.512 132.106 18.517 132.099 18.5205C131.712 18.7131 131.306 18.8775 130.886 19.0122C130.88 19.0143 130.874 19.0175 130.869 19.0218C130.863 19.0261 130.86 19.0313 130.857 19.037C130.855 19.0425 130.854 19.0484 130.855 19.0542C130.855 19.0601 130.857 19.0658 130.86 19.071C131.093 19.4558 131.36 19.8233 131.653 20.1709C131.659 20.1781 131.668 20.1836 131.678 20.1864C131.687 20.1892 131.698 20.1893 131.708 20.1867C133.105 19.8217 134.419 19.2563 135.593 18.5148C135.599 18.5113 135.603 18.5067 135.607 18.5014C135.61 18.4961 135.613 18.4902 135.613 18.4841C135.937 15.6278 135.07 13.1465 133.316 10.9473C133.314 10.9437 133.311 10.9404 133.308 10.9377C133.305 10.935 133.301 10.9329 133.296 10.9316ZM125.336 16.9794C124.57 16.9794 123.94 16.3802 123.94 15.6452C123.94 14.9094 124.558 14.3102 125.336 14.3102C126.12 14.3102 126.744 14.9144 126.732 15.6452C126.732 16.3802 126.114 16.9794 125.336 16.9794ZM130.498 16.9794C129.733 16.9794 129.102 16.3802 129.102 15.6452C129.102 14.9094 129.72 14.3102 130.498 14.3102C131.281 14.3102 131.907 14.9144 131.894 15.6452C131.894 16.3802 131.281 16.9794 130.498 16.9794Z" fill="#FDFDFF"/>
</g>
</g>
</svg>
