<svg width="32" height="32" viewBox="0 0 32 32" fill="none" xmlns="http://www.w3.org/2000/svg">
<g id="User Group">
<path id="Vector 1" d="M4 25.3327V23.9993C4 21.0538 6.38781 18.666 9.33333 18.666H14.6667C17.6122 18.666 20 21.0538 20 23.9993V25.3327M20 14.666C22.2091 14.666 24 12.8752 24 10.666C24 8.45688 22.2091 6.66602 20 6.66602M28 25.3327V23.9993C28 21.0538 25.6122 18.666 22.6667 18.666H22M16 10.666C16 12.8752 14.2091 14.666 12 14.666C9.79086 14.666 8 12.8752 8 10.666C8 8.45688 9.79086 6.66602 12 6.66602C14.2091 6.66602 16 8.45688 16 10.666Z" stroke="#DA0000" stroke-width="2" stroke-linecap="round" stroke-linejoin="round"/>
</g>
</svg>
