<svg width="32" height="32" viewBox="0 0 32 32" fill="none" xmlns="http://www.w3.org/2000/svg">
<g id="Bell">
<path id="Union" d="M7.71506 18.0548L7.06416 17.2957L7.71506 18.0548ZM10.3334 10.3333C10.3334 8.12411 12.1243 6.33325 14.3334 6.33325V4.33325C11.0197 4.33325 8.33341 7.01954 8.33341 10.3333H10.3334ZM10.3334 15.5605V10.3333H8.33341V15.5605H10.3334ZM7.66675 20.3333C7.66675 19.7258 7.93637 19.1823 8.36596 18.814L7.06416 17.2957C6.21031 18.0277 5.66675 19.1176 5.66675 20.3333H7.66675ZM7.66675 20.6666V20.3333H5.66675V20.6666H7.66675ZM9.33341 21.6666H8.66675V23.6666H9.33341V21.6666ZM22.6667 21.6666H9.33341V23.6666H22.6667V21.6666ZM23.3334 21.6666H22.6667V23.6666H23.3334V21.6666ZM24.3334 20.3333V20.6666H26.3334V20.3333H24.3334ZM23.6342 18.814C24.0638 19.1823 24.3334 19.7258 24.3334 20.3333H26.3334C26.3334 19.1176 25.7899 18.0277 24.936 17.2957L23.6342 18.814ZM21.6667 10.3333V15.5605H23.6667V10.3333H21.6667ZM17.6668 6.33325C19.8759 6.33325 21.6667 8.12411 21.6667 10.3333H23.6667C23.6667 7.01954 20.9805 4.33325 17.6668 4.33325V6.33325ZM14.3334 6.33325H17.6668V4.33325H14.3334V6.33325ZM24.936 17.2957C24.5551 16.9691 24.2242 16.6613 23.9876 16.3437C23.7556 16.0323 23.6667 15.7808 23.6667 15.5605H21.6667C21.6667 16.3597 22.0001 17.0236 22.3838 17.5386C22.7628 18.0474 23.2411 18.477 23.6342 18.814L24.936 17.2957ZM5.66675 20.6666C5.66675 22.3234 7.00989 23.6666 8.66675 23.6666V21.6666C8.11446 21.6666 7.66675 21.2189 7.66675 20.6666H5.66675ZM23.3334 23.6666C24.9903 23.6666 26.3334 22.3234 26.3334 20.6666H24.3334C24.3334 21.2189 23.8857 21.6666 23.3334 21.6666V23.6666ZM8.33341 15.5605C8.33341 15.7808 8.24456 16.0323 8.01257 16.3437C7.77596 16.6613 7.44507 16.9691 7.06416 17.2957L8.36596 18.814C8.75904 18.477 9.23732 18.0474 9.61639 17.5386C10.0001 17.0236 10.3334 16.3597 10.3334 15.5605H8.33341Z" fill="#0E7491"/>
<path id="Ellipse 112" d="M18.3967 26.5024C18.1749 26.9572 17.8282 27.3395 17.3972 27.6047C16.9662 27.8698 16.4687 28.0069 15.9627 27.9998C15.4567 27.9928 14.9632 27.8419 14.5397 27.5648C14.1163 27.2877 13.7805 26.8959 13.5714 26.435" stroke="#0E7491" stroke-width="2" stroke-linecap="round" stroke-linejoin="round"/>
<path id="Vector 186" d="M16 4V5.33333" stroke="#0E7491" stroke-width="2" stroke-linecap="round" stroke-linejoin="round"/>
</g>
</svg>
