<svg width="33" height="32" viewBox="0 0 33 32" fill="none" xmlns="http://www.w3.org/2000/svg">
<g id="User Group">
<path id="Vector 1" d="M4.5 25.3334V24.0001C4.5 21.0546 6.88781 18.6667 9.83333 18.6667H15.1667C18.1122 18.6667 20.5 21.0546 20.5 24.0001V25.3334M20.5 14.6667C22.7091 14.6667 24.5 12.8759 24.5 10.6667C24.5 8.45761 22.7091 6.66675 20.5 6.66675M28.5 25.3334V24.0001C28.5 21.0546 26.1122 18.6667 23.1667 18.6667H22.5M16.5 10.6667C16.5 12.8759 14.7091 14.6667 12.5 14.6667C10.2909 14.6667 8.5 12.8759 8.5 10.6667C8.5 8.45761 10.2909 6.66675 12.5 6.66675C14.7091 6.66675 16.5 8.45761 16.5 10.6667Z" stroke="#DA0000" stroke-width="2" stroke-linecap="round" stroke-linejoin="round"/>
</g>
</svg>
