<svg width="24" height="25" viewBox="0 0 24 25" fill="none" xmlns="http://www.w3.org/2000/svg">
<g id="User Circle">
<path id="Vector 1" d="M16.9696 20.0047C16.7257 18.0293 15.0414 16.5 13 16.5H11C8.95858 16.5 7.27433 18.0293 7.03036 20.0047M16.9696 20.0047C19.3986 18.393 21 15.6335 21 12.5C21 7.52944 16.9706 3.5 12 3.5C7.02944 3.5 3 7.52944 3 12.5C3 15.6335 4.60137 18.393 7.03036 20.0047M16.9696 20.0047C15.5456 20.9496 13.8371 21.5 12 21.5C10.1629 21.5 8.45441 20.9496 7.03036 20.0047M15 10.5C15 12.1569 13.6569 13.5 12 13.5C10.3431 13.5 9 12.1569 9 10.5C9 8.84315 10.3431 7.5 12 7.5C13.6569 7.5 15 8.84315 15 10.5Z" stroke="#5B5F67" stroke-width="2" stroke-linecap="round" stroke-linejoin="round"/>
</g>
</svg>
