<svg width="24" height="25" viewBox="0 0 24 25" fill="none" xmlns="http://www.w3.org/2000/svg">
<g id="Star">
<path id="Star 2" d="M11.0489 5.42705C11.3483 4.50574 12.6517 4.50574 12.9511 5.42705L14.2451 9.40983C14.379 9.82185 14.763 10.1008 15.1962 10.1008H19.3839C20.3527 10.1008 20.7554 11.3404 19.9717 11.9098L16.5838 14.3713C16.2333 14.626 16.0866 15.0773 16.2205 15.4894L17.5146 19.4721C17.8139 20.3934 16.7595 21.1596 15.9757 20.5902L12.5878 18.1287C12.2373 17.874 11.7627 17.874 11.4122 18.1287L8.02426 20.5902C7.24054 21.1596 6.18607 20.3934 6.48542 19.4721L7.7795 15.4894C7.91338 15.0773 7.76672 14.626 7.41623 14.3713L4.02827 11.9098C3.24456 11.3404 3.64734 10.1008 4.61606 10.1008H8.8038C9.23703 10.1008 9.62099 9.82185 9.75486 9.40983L11.0489 5.42705Z" stroke="#5B5F67" stroke-width="2" stroke-linecap="round" stroke-linejoin="round"/>
</g>
</svg>
