<svg width="40" height="40" viewBox="0 0 40 40" fill="none" xmlns="http://www.w3.org/2000/svg">
<g id="Dashboard 1">
<g id="Rectangle 9">
<path d="M21.6665 19.9993C21.6665 19.0789 22.4127 18.3327 23.3332 18.3327H31.6665C32.587 18.3327 33.3332 19.0789 33.3332 19.9993V31.666C33.3332 32.5865 32.587 33.3327 31.6665 33.3327H23.3332C22.4127 33.3327 21.6665 32.5865 21.6665 31.666V19.9993Z" stroke="#C7C9D9" stroke-width="3" stroke-linecap="round"/>
<path d="M6.6665 8.33268C6.6665 7.41221 7.4127 6.66602 8.33317 6.66602H14.9998C15.9203 6.66602 16.6665 7.41221 16.6665 8.33268V19.9993C16.6665 20.9198 15.9203 21.666 14.9998 21.666H8.33317C7.4127 21.666 6.6665 20.9198 6.6665 19.9993V8.33268Z" stroke="#C7C9D9" stroke-width="3" stroke-linecap="round"/>
<path d="M6.6665 28.3327C6.6665 27.4122 7.4127 26.666 8.33317 26.666H14.9998C15.9203 26.666 16.6665 27.4122 16.6665 28.3327V31.666C16.6665 32.5865 15.9203 33.3327 14.9998 33.3327H8.33317C7.4127 33.3327 6.6665 32.5865 6.6665 31.666V28.3327Z" stroke="#C7C9D9" stroke-width="3" stroke-linecap="round"/>
<path d="M21.6665 8.33268C21.6665 7.41221 22.4127 6.66602 23.3332 6.66602H31.6665C32.587 6.66602 33.3332 7.41221 33.3332 8.33268V11.666C33.3332 12.5865 32.587 13.3327 31.6665 13.3327H23.3332C22.4127 13.3327 21.6665 12.5865 21.6665 11.666V8.33268Z" stroke="#C7C9D9" stroke-width="3" stroke-linecap="round"/>
</g>
</g>
</svg>
