<svg width="40" height="40" viewBox="0 0 40 40" fill="none" xmlns="http://www.w3.org/2000/svg">
<g id="Headset">
<path id="Rectangle 22" d="M10 21.6673H11.25C12.4006 21.6673 13.3333 22.6001 13.3333 23.7507V29.584C13.3333 30.7346 12.4006 31.6673 11.25 31.6673H10C7.23858 31.6673 5 29.4287 5 26.6673C5 23.9059 7.23858 21.6673 10 21.6673ZM10 21.6673V18.334C10 12.8111 14.4772 8.33398 20 8.33398C25.5228 8.33398 30 12.8111 30 18.334V21.6673M30 21.6673H28.75C27.5994 21.6673 26.6667 22.6001 26.6667 23.7507V29.584C26.6667 30.7346 27.5994 31.6673 28.75 31.6673H30C32.7614 31.6673 35 29.4287 35 26.6673C35 23.9059 32.7614 21.6673 30 21.6673Z" stroke="#C7C9D9" stroke-width="3" stroke-linecap="round" stroke-linejoin="round"/>
</g>
</svg>
