<svg width="40" height="40" viewBox="0 0 40 40" fill="none" xmlns="http://www.w3.org/2000/svg">
<g id="Upload 3">
<path id="Vector" d="M13.4998 13.334C13.4998 14.1624 14.1714 14.834 14.9998 14.834C15.8283 14.834 16.4998 14.1624 16.4998 13.334H13.4998ZM16.4998 26.6673C16.4998 25.8389 15.8283 25.1673 14.9998 25.1673C14.1714 25.1673 13.4998 25.8389 13.4998 26.6673H16.4998ZM32.9579 31.5372L34.289 32.2287L34.289 32.2287L32.9579 31.5372ZM31.5364 32.9587L30.845 31.6276L30.845 31.6276L31.5364 32.9587ZM31.5364 7.04261L32.2279 5.71149L32.2279 5.71149L31.5364 7.04261ZM32.9579 8.46407L34.289 7.77261L34.289 7.77261L32.9579 8.46407ZM16.7966 7.04261L16.1051 5.71149L16.1051 5.71149L16.7966 7.04261ZM15.3751 8.46407L16.7062 9.15553L16.7062 9.15553L15.3751 8.46407ZM16.7966 32.9587L16.1051 34.2898L16.1051 34.2898L16.7966 32.9587ZM15.3751 31.5372L14.044 32.2287L14.044 32.2287L15.3751 31.5372ZM23.3332 21.5007C24.1616 21.5007 24.8332 20.8291 24.8332 20.0007C24.8332 19.1722 24.1616 18.5007 23.3332 18.5007L23.3332 21.5007ZM6.6665 20.0006L5.60584 18.94C5.02006 19.5258 5.02006 20.4755 5.60584 21.0613L6.6665 20.0006ZM11.8938 16.8946C12.4796 16.3089 12.4796 15.3591 11.8938 14.7733C11.308 14.1875 10.3583 14.1875 9.77251 14.7733L11.8938 16.8946ZM9.77251 25.228C10.3583 25.8138 11.308 25.8138 11.8938 25.228C12.4796 24.6422 12.4796 23.6924 11.8938 23.1067L9.77251 25.228ZM20.3665 8.16732H27.9665V5.16732H20.3665V8.16732ZM31.8332 12.034V27.9673H34.8332V12.034H31.8332ZM27.9665 31.834H20.3665V34.834H27.9665V31.834ZM16.4998 13.334V12.034H13.4998V13.334H16.4998ZM16.4998 27.9673V26.6673H13.4998V27.9673H16.4998ZM31.8332 27.9673C31.8332 28.9416 31.832 29.5807 31.7914 30.0691C31.7523 30.5395 31.6846 30.7343 31.6268 30.8458L34.289 32.2287C34.6064 31.6177 34.7264 30.9767 34.7811 30.3174C34.8344 29.676 34.8332 28.8913 34.8332 27.9673H31.8332ZM27.9665 34.834C28.8905 34.834 29.6752 34.8352 30.3165 34.7819C30.9759 34.7272 31.6169 34.6072 32.2279 34.2898L30.845 31.6276C30.7335 31.6855 30.5387 31.7532 30.0683 31.7922C29.5799 31.8328 28.9408 31.834 27.9665 31.834V34.834ZM31.6268 30.8458C31.4528 31.1806 31.1798 31.4536 30.845 31.6276L32.2279 34.2898C33.1107 33.8313 33.8304 33.1115 34.289 32.2287L31.6268 30.8458ZM27.9665 8.16732C28.9408 8.16732 29.5799 8.16852 30.0683 8.20908C30.5387 8.24815 30.7335 8.31584 30.845 8.37373L32.2279 5.71149C31.6169 5.39409 30.9759 5.27413 30.3165 5.21938C29.6752 5.16611 28.8905 5.16732 27.9665 5.16732V8.16732ZM34.8332 12.034C34.8332 11.11 34.8344 10.3253 34.7811 9.68395C34.7264 9.02463 34.6064 8.38363 34.289 7.77261L31.6268 9.15553C31.6846 9.26697 31.7523 9.46178 31.7914 9.93223C31.832 10.4206 31.8332 11.0597 31.8332 12.034H34.8332ZM30.845 8.37373C31.1798 8.54767 31.4528 8.82069 31.6268 9.15553L34.289 7.77261C33.8304 6.88983 33.1107 6.17005 32.2279 5.71149L30.845 8.37373ZM20.3665 5.16732C19.4425 5.16732 18.6578 5.16611 18.0165 5.21938C17.3571 5.27413 16.7162 5.39409 16.1051 5.71149L17.4881 8.37373C17.5995 8.31584 17.7943 8.24815 18.2647 8.20908C18.7532 8.16852 19.3922 8.16732 20.3665 8.16732V5.16732ZM16.4998 12.034C16.4998 11.0597 16.501 10.4206 16.5416 9.93223C16.5807 9.46178 16.6484 9.26697 16.7062 9.15553L14.044 7.77261C13.7266 8.38363 13.6066 9.02463 13.5519 9.68395C13.4986 10.3253 13.4998 11.11 13.4998 12.034H16.4998ZM16.1051 5.71149C15.2224 6.17005 14.5026 6.88983 14.044 7.77261L16.7062 9.15553C16.8802 8.82069 17.1532 8.54767 17.4881 8.37373L16.1051 5.71149ZM20.3665 31.834C19.3922 31.834 18.7532 31.8328 18.2647 31.7922C17.7943 31.7532 17.5995 31.6855 17.4881 31.6276L16.1051 34.2898C16.7162 34.6072 17.3571 34.7272 18.0165 34.7819C18.6578 34.8352 19.4425 34.834 20.3665 34.834V31.834ZM13.4998 27.9673C13.4998 28.8913 13.4986 29.676 13.5519 30.3174C13.6066 30.9767 13.7266 31.6177 14.044 32.2287L16.7062 30.8458C16.6484 30.7343 16.5807 30.5395 16.5416 30.0691C16.501 29.5807 16.4998 28.9416 16.4998 27.9673H13.4998ZM17.4881 31.6276C17.1532 31.4536 16.8802 31.1806 16.7062 30.8458L14.044 32.2287C14.5026 33.1115 15.2224 33.8313 16.1051 34.2898L17.4881 31.6276ZM23.3332 18.5007L6.6665 18.5006L6.6665 21.5006L23.3332 21.5007L23.3332 18.5007ZM7.72716 21.0613L11.8938 16.8946L9.77251 14.7733L5.60584 18.94L7.72716 21.0613ZM5.60584 21.0613L9.77251 25.228L11.8938 23.1067L7.72716 18.94L5.60584 21.0613Z" fill="#C7C9D9"/>
</g>
</svg>
