<svg width="52" height="52" viewBox="0 0 52 52" fill="none" xmlns="http://www.w3.org/2000/svg">
<g id="Date Range">
<path id="Rectangle 47" d="M43.3334 21.6667V12.8333C43.3334 11.7288 42.438 10.8333 41.3334 10.8333H10.6667C9.56218 10.8333 8.66675 11.7288 8.66675 12.8333V21.6667M43.3334 21.6667V43.5C43.3334 44.6046 42.438 45.5 41.3334 45.5H10.6667C9.56218 45.5 8.66675 44.6046 8.66675 43.5V21.6667M43.3334 21.6667H8.66675M17.3334 6.5V15.1667M34.6667 6.5V15.1667" stroke="#5B5F67" stroke-width="2" stroke-linecap="round"/>
<rect id="Rectangle 48" x="13" y="26" width="6.5" height="6.5" rx="0.5" fill="#5B5F67"/>
<rect id="Rectangle 49" x="22.75" y="26" width="6.5" height="6.5" rx="0.5" fill="#5B5F67"/>
<rect id="Rectangle 50" x="32.5" y="26" width="6.5" height="6.5" rx="0.5" fill="#5B5F67"/>
</g>
</svg>
